<mxfile host="app.diagrams.net" modified="2023-04-09T17:39:57.331Z" agent="Mozilla/5.0 (Windows NT 10.0; Win64; x64) AppleWebKit/537.36 (KHTML, like Gecko) Chrome/111.0.0.0 Safari/537.36" version="21.1.5" etag="7QtPKgk68meSb4lG9LVp" type="github">
  <diagram name="Page-1" id="WltNl4s1_CGxJ0tStk8s">
    <mxGraphModel>
      <root>
        <mxCell id="0" />
        <mxCell id="1" parent="0" />
      </root>
    </mxGraphModel>
  </diagram>
</mxfile>
